<svg xmlns="http://www.w3.org/2000/svg" xmlns:xlink="http://www.w3.org/1999/xlink" width="500" zoomAndPan="magnify" viewBox="0 0 375 374.999991" height="500" preserveAspectRatio="xMidYMid meet" version="1.0"><defs><clipPath id="af42f90272"><path d="M 37.5 0 L 337.5 0 C 347.445312 0 356.984375 3.949219 364.015625 10.984375 C 371.050781 18.015625 375 27.554688 375 37.5 L 375 337.5 C 375 347.445312 371.050781 356.984375 364.015625 364.015625 C 356.984375 371.050781 347.445312 375 337.5 375 L 37.5 375 C 27.554688 375 18.015625 371.050781 10.984375 364.015625 C 3.949219 356.984375 0 347.445312 0 337.5 L 0 37.5 C 0 27.554688 3.949219 18.015625 10.984375 10.984375 C 18.015625 3.949219 27.554688 0 37.5 0 Z M 37.5 0 " clip-rule="nonzero"/></clipPath></defs><g clip-path="url(#af42f90272)"><rect x="-37.5" width="450" fill="#bae6ff" y="-37.499999" height="449.999989" fill-opacity="1"/></g><path stroke-linecap="round" transform="matrix(0.75, 0, 0, 0.75, 19.923806, 144.157301)" fill="none" stroke-linejoin="miter" d="M 32.997427 172.368402 L 32.997427 68.998603 C 32.997427 49.118394 49.11722 32.998601 68.99743 32.998601 L 215.804731 32.998601 C 235.690149 32.998601 251.804733 49.118394 251.804733 68.998603 L 251.804733 172.368402 " stroke="#1a262e" stroke-width="66" stroke-opacity="1" stroke-miterlimit="4"/><path stroke-linecap="round" transform="matrix(0, 0.75, -0.75, 0, 297.490034, 61.178485)" fill="none" stroke-linejoin="miter" d="M 33.001606 33.002339 L 283.012039 33.002339 " stroke="#1a262e" stroke-width="66" stroke-opacity="1" stroke-miterlimit="4"/><path stroke-linecap="round" transform="matrix(0.75, 0, 0, 0.75, 272.745015, 145.684531)" fill="none" stroke-linejoin="miter" d="M 33.00144 32.998752 L 76.777485 32.998752 " stroke="#1a262e" stroke-width="66" stroke-opacity="1" stroke-miterlimit="4"/><path stroke-linecap="round" transform="matrix(0, 0.75, -0.75, 0, 150.720741, 170.43992)" fill="none" stroke-linejoin="miter" d="M 32.001984 31.997448 L 77.840528 31.997448 " stroke="#1a262e" stroke-width="64" stroke-opacity="1" stroke-miterlimit="4"/></svg>